<?xml version="1.0" encoding="UTF-8" standalone="no"?>
<!-- Generator: Adobe Illustrator 15.0.0, SVG Export Plug-In . SVG Version: 6.00 Build 0) -->

<svg
   xmlns:dc="http://purl.org/dc/elements/1.1/"
   xmlns:cc="http://creativecommons.org/ns#"
   xmlns:rdf="http://www.w3.org/1999/02/22-rdf-syntax-ns#"
   xmlns:svg="http://www.w3.org/2000/svg"
   xmlns="http://www.w3.org/2000/svg"
   xmlns:xlink="http://www.w3.org/1999/xlink"
   xmlns:sodipodi="http://sodipodi.sourceforge.net/DTD/sodipodi-0.dtd"
   xmlns:inkscape="http://www.inkscape.org/namespaces/inkscape"
   version="1.1"
   x="0px"
   y="0px"
   width="258.71899"
   height="56.974998"
   viewBox="0 0 258.71899 56.975"
   enable-background="new 0 0 801 346"
   xml:space="preserve"
   id="svg85114"
   inkscape:version="0.92.2 (5c3e80d, 2017-08-06)"
   sodipodi:docname="ocsigen-white.svg"><metadata
     id="metadata126035"><rdf:RDF><cc:Work
         rdf:about=""><dc:format>image/svg+xml</dc:format><dc:type
           rdf:resource="http://purl.org/dc/dcmitype/StillImage" /><dc:title></dc:title></cc:Work></rdf:RDF></metadata><defs
     id="defs126033"><linearGradient
       inkscape:collect="always"
       xlink:href="#SVGID_2273_"
       id="linearGradient139473"
       gradientUnits="userSpaceOnUse"
       x1="597.3418"
       y1="216.6563"
       x2="625.42932"
       y2="176.54311" /><linearGradient
       inkscape:collect="always"
       xlink:href="#SVGID_2274_"
       id="linearGradient139475"
       gradientUnits="userSpaceOnUse"
       x1="555.15332"
       y1="209.39059"
       x2="578.64722"
       y2="175.838" /><linearGradient
       inkscape:collect="always"
       xlink:href="#SVGID_2275_"
       id="linearGradient139477"
       gradientUnits="userSpaceOnUse"
       x1="508.96191"
       y1="218.8613"
       x2="536.85907"
       y2="179.0201" /><linearGradient
       inkscape:collect="always"
       xlink:href="#SVGID_2276_"
       id="linearGradient139479"
       gradientUnits="userSpaceOnUse"
       x1="485.9082"
       y1="210.21291"
       x2="501.31201"
       y2="188.214" /><linearGradient
       inkscape:collect="always"
       xlink:href="#SVGID_2277_"
       id="linearGradient139481"
       gradientUnits="userSpaceOnUse"
       x1="490.3125"
       y1="178.9946"
       x2="496.9267"
       y2="172.38049" /><linearGradient
       inkscape:collect="always"
       xlink:href="#SVGID_2278_"
       id="linearGradient139483"
       gradientUnits="userSpaceOnUse"
       x1="452.70609"
       y1="215.1982"
       x2="482.67911"
       y2="172.3923" /><linearGradient
       inkscape:collect="always"
       xlink:href="#SVGID_2279_"
       id="linearGradient139485"
       gradientUnits="userSpaceOnUse"
       x1="426.65479"
       y1="208.08791"
       x2="450.13391"
       y2="174.5563" /><linearGradient
       inkscape:collect="always"
       xlink:href="#SVGID_2280_"
       id="linearGradient139487"
       gradientUnits="userSpaceOnUse"
       x1="383.97849"
       y1="210.2988"
       x2="407.46921"
       y2="176.7507" /></defs><sodipodi:namedview
     pagecolor="#ffffff"
     bordercolor="#666666"
     borderopacity="1"
     objecttolerance="10"
     gridtolerance="10"
     guidetolerance="10"
     inkscape:pageopacity="0"
     inkscape:pageshadow="2"
     inkscape:window-width="3011"
     inkscape:window-height="1295"
     id="namedview126031"
     showgrid="false"
     inkscape:zoom="5.6192687"
     inkscape:cx="172.10038"
     inkscape:cy="8.8677751"
     inkscape:window-x="0"
     inkscape:window-y="19"
     inkscape:window-maximized="0"
     inkscape:current-layer="Ocsigen__x28_bleu_x29_"
     fit-margin-top="0"
     fit-margin-left="0"
     fit-margin-right="0"
     fit-margin-bottom="0"
     inkscape:pagecheckerboard="true"><inkscape:grid
       type="xygrid"
       id="grid4690"
       originx="8.0499998e-06"
       originy="-2.0479832" /></sodipodi:namedview><g
     id="Texte_2_"
     display="inline"
     style="display:inline"
     transform="translate(-375.32,-170.979)"><g
       id="Ocsigen__x28_bleu_x29_"><linearGradient
         id="SVGID_2265_"
         gradientUnits="userSpaceOnUse"
         x1="668.95898"
         y1="182.4604"
         x2="420.85709"
         y2="231.7988"><stop
           offset="0"
           style="stop-color:#00C1F3"
           id="stop122418" /><stop
           offset="0.1268"
           style="stop-color:#00BBEF"
           id="stop122420" /><stop
           offset="0.302"
           style="stop-color:#00AFE7"
           id="stop122422" /><stop
           offset="0.5054"
           style="stop-color:#009DDA"
           id="stop122424" /><stop
           offset="0.73"
           style="stop-color:#0085C9"
           id="stop122426" /><stop
           offset="0.9694"
           style="stop-color:#006AB5"
           id="stop122428" /><stop
           offset="1"
           style="stop-color:#0066B3"
           id="stop122430" /></linearGradient><path
         d="m 613.494,172.684 c -6.035,0 -11.252,2.446 -14.922,6.359 v -5.789 h -5.463 v 40.439 h 5.463 v -21.035 c 0.326,-8.072 6.85,-14.513 15.002,-14.513 8.234,0 15.002,6.767 15.002,15.083 v 20.464 h 5.463 v -20.464 c 0,-11.576 -9.541,-20.544 -20.545,-20.544 z"
         id="path122432"
         inkscape:connector-curvature="0"
         style="fill:#ffffff" /><linearGradient
         id="SVGID_2266_"
         gradientUnits="userSpaceOnUse"
         x1="667.17682"
         y1="173.50929"
         x2="419.08429"
         y2="222.8457"><stop
           offset="0"
           style="stop-color:#00C1F3"
           id="stop122435" /><stop
           offset="0.1268"
           style="stop-color:#00BBEF"
           id="stop122437" /><stop
           offset="0.302"
           style="stop-color:#00AFE7"
           id="stop122439" /><stop
           offset="0.5054"
           style="stop-color:#009DDA"
           id="stop122441" /><stop
           offset="0.73"
           style="stop-color:#0085C9"
           id="stop122443" /><stop
           offset="0.9694"
           style="stop-color:#006AB5"
           id="stop122445" /><stop
           offset="1"
           style="stop-color:#0066B3"
           id="stop122447" /></linearGradient><path
         d="m 553.297,178.944 c -7.99,8.038 -8.008,20.778 0.088,28.826 4.758,4.726 11.094,6.662 17.137,5.875 v -5.486 c -4.648,0.803 -9.607,-0.609 -13.227,-4.207 -2.256,-2.241 -3.646,-5.004 -4.176,-7.827 l 34.992,-0.167 c 0.732,-6.169 -1.248,-12.622 -5.877,-17.219 -8.209,-8.16 -20.834,-7.949 -28.937,0.205 z m -0.195,11.645 c 0.512,-2.827 1.885,-5.598 4.127,-7.853 5.861,-5.899 15.316,-5.928 21.213,-0.066 2.256,2.241 3.65,5.004 4.178,7.828 z"
         id="path122449"
         inkscape:connector-curvature="0"
         style="fill:#ffffff" /><linearGradient
         id="SVGID_2267_"
         gradientUnits="userSpaceOnUse"
         x1="666.80078"
         y1="171.6147"
         x2="418.70691"
         y2="220.95151"><stop
           offset="0"
           style="stop-color:#00C1F3"
           id="stop122452" /><stop
           offset="0.1268"
           style="stop-color:#00BBEF"
           id="stop122454" /><stop
           offset="0.302"
           style="stop-color:#00AFE7"
           id="stop122456" /><stop
           offset="0.5054"
           style="stop-color:#009DDA"
           id="stop122458" /><stop
           offset="0.73"
           style="stop-color:#0085C9"
           id="stop122460" /><stop
           offset="0.9694"
           style="stop-color:#006AB5"
           id="stop122462" /><stop
           offset="1"
           style="stop-color:#0066B3"
           id="stop122464" /></linearGradient><path
         d="m 521.787,172.928 c -11.578,0 -20.383,9.05 -20.383,20.546 0,11.332 8.969,20.383 20.383,20.383 6.033,0 11.332,-2.447 15.084,-6.443 v 0.158 c 0,8.316 -6.605,14.921 -14.922,14.921 v 5.461 c 11.414,0 20.383,-9.049 20.383,-20.382 v -14.18 c -0.08,-11.495 -9.621,-20.464 -20.545,-20.464 z m 15.084,21.117 c -0.326,7.989 -7.014,14.35 -15.004,14.35 -8.314,0 -15,-6.686 -15,-15.002 0,-8.235 6.686,-15.002 15,-15.002 8.236,0 15.004,6.767 15.004,15.002 z"
         id="path122466"
         inkscape:connector-curvature="0"
         style="fill:#ffffff" /><g
         id="g122468"
         style="fill:#ffffff"><linearGradient
           id="SVGID_2268_"
           gradientUnits="userSpaceOnUse"
           x1="665.4707"
           y1="165.03661"
           x2="417.40869"
           y2="214.3671"><stop
             offset="0"
             style="stop-color:#00C1F3"
             id="stop122471" /><stop
             offset="0.1268"
             style="stop-color:#00BBEF"
             id="stop122473" /><stop
             offset="0.302"
             style="stop-color:#00AFE7"
             id="stop122475" /><stop
             offset="0.5054"
             style="stop-color:#009DDA"
             id="stop122477" /><stop
             offset="0.73"
             style="stop-color:#0085C9"
             id="stop122479" /><stop
             offset="0.9694"
             style="stop-color:#006AB5"
             id="stop122481" /><stop
             offset="1"
             style="stop-color:#0066B3"
             id="stop122483" /></linearGradient><rect
           x="490.879"
           y="184.73199"
           width="5.461"
           height="28.961"
           id="rect122485"
           style="fill:#ffffff" /><linearGradient
           id="SVGID_2269_"
           gradientUnits="userSpaceOnUse"
           x1="660.95898"
           y1="142.3857"
           x2="412.90689"
           y2="191.7142"><stop
             offset="0"
             style="stop-color:#00C1F3"
             id="stop122488" /><stop
             offset="0.1268"
             style="stop-color:#00BBEF"
             id="stop122490" /><stop
             offset="0.302"
             style="stop-color:#00AFE7"
             id="stop122492" /><stop
             offset="0.5054"
             style="stop-color:#009DDA"
             id="stop122494" /><stop
             offset="0.73"
             style="stop-color:#0085C9"
             id="stop122496" /><stop
             offset="0.9694"
             style="stop-color:#006AB5"
             id="stop122498" /><stop
             offset="1"
             style="stop-color:#0066B3"
             id="stop122500" /></linearGradient><path
           d="m 493.568,170.979 c -2.445,0 -4.646,2.119 -4.646,4.729 0,2.609 2.201,4.647 4.646,4.647 2.609,0 4.729,-2.039 4.729,-4.647 0,-2.61 -2.119,-4.729 -4.729,-4.729 z"
           id="path122502"
           inkscape:connector-curvature="0"
           style="fill:#ffffff" /></g><linearGradient
         id="SVGID_2270_"
         gradientUnits="userSpaceOnUse"
         x1="663.37207"
         y1="154.38921"
         x2="415.28189"
         y2="203.7252"><stop
           offset="0"
           style="stop-color:#00C1F3"
           id="stop122505" /><stop
           offset="0.1268"
           style="stop-color:#00BBEF"
           id="stop122507" /><stop
           offset="0.302"
           style="stop-color:#00AFE7"
           id="stop122509" /><stop
           offset="0.5054"
           style="stop-color:#009DDA"
           id="stop122511" /><stop
           offset="0.73"
           style="stop-color:#0085C9"
           id="stop122513" /><stop
           offset="0.9694"
           style="stop-color:#006AB5"
           id="stop122515" /><stop
           offset="1"
           style="stop-color:#0066B3"
           id="stop122517" /></linearGradient><path
         d="m 465.359,193.229 c 0,6.565 -4.203,12.132 -10.119,14.126 l -0.205,0.074 c -1.445,0.463 -2.986,0.718 -4.596,0.718 v 5.463 c 1.588,0 3.121,-0.191 4.596,-0.523 9.133,-2.055 15.787,-10.102 15.787,-19.858 0,-7.479 5.453,-13.661 12.682,-14.737 v -5.522 c -10.326,1.095 -18.145,9.679 -18.145,20.259 z"
         id="path122519"
         inkscape:connector-curvature="0"
         style="fill:#ffffff" /><linearGradient
         id="SVGID_2271_"
         gradientUnits="userSpaceOnUse"
         x1="662.34082"
         y1="149.1694"
         x2="414.2442"
         y2="198.5067"><stop
           offset="0"
           style="stop-color:#00C1F3"
           id="stop122522" /><stop
           offset="0.1268"
           style="stop-color:#00BBEF"
           id="stop122524" /><stop
           offset="0.302"
           style="stop-color:#00AFE7"
           id="stop122526" /><stop
           offset="0.5054"
           style="stop-color:#009DDA"
           id="stop122528" /><stop
           offset="0.73"
           style="stop-color:#0085C9"
           id="stop122530" /><stop
           offset="0.9694"
           style="stop-color:#006AB5"
           id="stop122532" /><stop
           offset="1"
           style="stop-color:#0066B3"
           id="stop122534" /></linearGradient><path
         d="m 430.434,203.747 c -5.87,-5.871 -5.87,-15.409 0,-21.198 5.87,-5.87 15.328,-5.87 21.199,0 l 0.08,0.082 3.832,-3.914 c -7.746,-7.745 -20.871,-8.152 -29.024,0 -7.989,8.072 -7.989,20.79 0.081,28.943 4.801,4.801 11.243,6.694 17.377,5.778 v -5.581 c -4.761,0.946 -9.909,-0.423 -13.545,-4.11 z"
         id="path122536"
         inkscape:connector-curvature="0"
         style="fill:#ffffff" /><linearGradient
         id="SVGID_2272_"
         gradientUnits="userSpaceOnUse"
         x1="660.66498"
         y1="140.78081"
         x2="412.57581"
         y2="190.11659"><stop
           offset="0"
           style="stop-color:#00C1F3"
           id="stop122539" /><stop
           offset="0.1268"
           style="stop-color:#00BBEF"
           id="stop122541" /><stop
           offset="0.302"
           style="stop-color:#00AFE7"
           id="stop122543" /><stop
           offset="0.5054"
           style="stop-color:#009DDA"
           id="stop122545" /><stop
           offset="0.73"
           style="stop-color:#0085C9"
           id="stop122547" /><stop
           offset="0.9694"
           style="stop-color:#006AB5"
           id="stop122549" /><stop
           offset="1"
           style="stop-color:#0066B3"
           id="stop122551" /></linearGradient><path
         d="m 395.703,173.01 c -11.577,0 -20.383,9.05 -20.383,20.546 0,11.331 8.968,20.381 20.383,20.381 11.496,0 20.545,-9.05 20.545,-20.381 0,-11.578 -9.539,-20.546 -20.545,-20.546 z m 0.082,35.465 c -8.235,0 -15.002,-6.766 -15.002,-15 0,-8.316 6.767,-15.002 15.002,-15.002 8.315,0 15,6.686 15,15.002 0,8.234 -6.684,15 -15,15 z"
         id="path122553"
         inkscape:connector-curvature="0"
         style="fill:#ffffff" /><g
         id="Ocsigen__x28_Ombres_haut_droite_x29_"
         display="none"
         style="display:none"><linearGradient
           id="SVGID_2273_"
           gradientUnits="userSpaceOnUse"
           x1="597.3418"
           y1="216.6563"
           x2="625.42932"
           y2="176.54311"><stop
             offset="0.6258"
             style="stop-color:#FFFFFF"
             id="stop122557" /><stop
             offset="0.8001"
             style="stop-color:#FBFBFB"
             id="stop122559" /><stop
             offset="0.8629"
             style="stop-color:#F1F1F0"
             id="stop122561" /><stop
             offset="0.9077"
             style="stop-color:#E3E3E3"
             id="stop122563" /><stop
             offset="0.9439"
             style="stop-color:#D1D2D2"
             id="stop122565" /><stop
             offset="0.9745"
             style="stop-color:#BDBEBE"
             id="stop122567" /><stop
             offset="1"
             style="stop-color:#A6A9AA"
             id="stop122569" /></linearGradient><path
           display="inline"
           d="m 613.494,172.684 c -6.035,0 -11.252,2.446 -14.922,6.359 v -5.789 h -5.463 v 40.439 h 5.463 v -21.035 c 0.326,-8.072 6.85,-14.513 15.002,-14.513 8.234,0 15.002,6.767 15.002,15.083 v 20.464 h 5.463 v -20.464 c 0,-11.576 -9.541,-20.544 -20.545,-20.544 z"
           id="path122571"
           inkscape:connector-curvature="0"
           style="display:inline;fill:url(#linearGradient139473)" /><linearGradient
           id="SVGID_2274_"
           gradientUnits="userSpaceOnUse"
           x1="555.15332"
           y1="209.39059"
           x2="578.64722"
           y2="175.838"><stop
             offset="0.6258"
             style="stop-color:#FFFFFF"
             id="stop122574" /><stop
             offset="0.8001"
             style="stop-color:#FBFBFB"
             id="stop122576" /><stop
             offset="0.8629"
             style="stop-color:#F1F1F0"
             id="stop122578" /><stop
             offset="0.9077"
             style="stop-color:#E3E3E3"
             id="stop122580" /><stop
             offset="0.9439"
             style="stop-color:#D1D2D2"
             id="stop122582" /><stop
             offset="0.9745"
             style="stop-color:#BDBEBE"
             id="stop122584" /><stop
             offset="1"
             style="stop-color:#A6A9AA"
             id="stop122586" /></linearGradient><path
           display="inline"
           d="m 553.297,178.944 c -7.99,8.038 -8.008,20.778 0.088,28.826 4.758,4.726 11.094,6.662 17.137,5.875 v -5.486 c -4.648,0.803 -9.607,-0.609 -13.227,-4.207 -2.256,-2.241 -3.646,-5.004 -4.176,-7.827 l 34.992,-0.167 c 0.732,-6.169 -1.248,-12.622 -5.877,-17.219 -8.209,-8.16 -20.834,-7.949 -28.937,0.205 z m -0.195,11.645 c 0.512,-2.827 1.885,-5.598 4.127,-7.853 5.861,-5.899 15.316,-5.928 21.213,-0.066 2.256,2.241 3.65,5.004 4.178,7.828 z"
           id="path122588"
           inkscape:connector-curvature="0"
           style="display:inline;fill:url(#linearGradient139475)" /><linearGradient
           id="SVGID_2275_"
           gradientUnits="userSpaceOnUse"
           x1="508.96191"
           y1="218.8613"
           x2="536.85907"
           y2="179.0201"><stop
             offset="0.6258"
             style="stop-color:#FFFFFF"
             id="stop122591" /><stop
             offset="0.8001"
             style="stop-color:#FBFBFB"
             id="stop122593" /><stop
             offset="0.8629"
             style="stop-color:#F1F1F0"
             id="stop122595" /><stop
             offset="0.9077"
             style="stop-color:#E3E3E3"
             id="stop122597" /><stop
             offset="0.9439"
             style="stop-color:#D1D2D2"
             id="stop122599" /><stop
             offset="0.9745"
             style="stop-color:#BDBEBE"
             id="stop122601" /><stop
             offset="1"
             style="stop-color:#A6A9AA"
             id="stop122603" /></linearGradient><path
           display="inline"
           d="m 521.787,172.928 c -11.578,0 -20.383,9.05 -20.383,20.546 0,11.332 8.969,20.383 20.383,20.383 6.033,0 11.332,-2.447 15.084,-6.443 v 0.158 c 0,8.316 -6.605,14.921 -14.922,14.921 v 5.461 c 11.414,0 20.383,-9.049 20.383,-20.382 v -14.18 c -0.08,-11.495 -9.621,-20.464 -20.545,-20.464 z m 15.084,21.117 c -0.326,7.989 -7.014,14.35 -15.004,14.35 -8.314,0 -15,-6.686 -15,-15.002 0,-8.235 6.686,-15.002 15,-15.002 8.236,0 15.004,6.767 15.004,15.002 z"
           id="path122605"
           inkscape:connector-curvature="0"
           style="display:inline;fill:url(#linearGradient139477)" /><g
           display="inline"
           id="g122607"
           style="display:inline"><linearGradient
             id="SVGID_2276_"
             gradientUnits="userSpaceOnUse"
             x1="485.9082"
             y1="210.21291"
             x2="501.31201"
             y2="188.214"><stop
               offset="0.1411"
               style="stop-color:#FFFFFF"
               id="stop122610" /><stop
               offset="0.5413"
               style="stop-color:#FBFBFB"
               id="stop122612" /><stop
               offset="0.6854"
               style="stop-color:#F1F1F0"
               id="stop122614" /><stop
               offset="0.7882"
               style="stop-color:#E3E3E3"
               id="stop122616" /><stop
               offset="0.8712"
               style="stop-color:#D1D2D2"
               id="stop122618" /><stop
               offset="0.9416"
               style="stop-color:#BDBEBE"
               id="stop122620" /><stop
               offset="1"
               style="stop-color:#A6A9AA"
               id="stop122622" /></linearGradient><rect
             x="490.879"
             y="184.73199"
             width="5.461"
             height="28.961"
             id="rect122624"
             style="fill:url(#linearGradient139479)" /><linearGradient
             id="SVGID_2277_"
             gradientUnits="userSpaceOnUse"
             x1="490.3125"
             y1="178.9946"
             x2="496.9267"
             y2="172.38049"><stop
               offset="0.2147"
               style="stop-color:#FFFFFF"
               id="stop122627" /><stop
               offset="0.5806"
               style="stop-color:#FBFBFB"
               id="stop122629" /><stop
               offset="0.7124"
               style="stop-color:#F1F1F0"
               id="stop122631" /><stop
               offset="0.8063"
               style="stop-color:#E3E3E3"
               id="stop122633" /><stop
               offset="0.8823"
               style="stop-color:#D1D2D2"
               id="stop122635" /><stop
               offset="0.9466"
               style="stop-color:#BDBEBE"
               id="stop122637" /><stop
               offset="1"
               style="stop-color:#A6A9AA"
               id="stop122639" /></linearGradient><path
             d="m 493.568,170.979 c -2.445,0 -4.646,2.119 -4.646,4.729 0,2.609 2.201,4.647 4.646,4.647 2.609,0 4.729,-2.039 4.729,-4.647 0,-2.61 -2.119,-4.729 -4.729,-4.729 z"
             id="path122641"
             inkscape:connector-curvature="0"
             style="fill:url(#linearGradient139481)" /></g><linearGradient
           id="SVGID_2278_"
           gradientUnits="userSpaceOnUse"
           x1="452.70609"
           y1="215.1982"
           x2="482.67911"
           y2="172.3923"><stop
             offset="0.2577"
             style="stop-color:#FFFFFF"
             id="stop122644" /><stop
             offset="0.6036"
             style="stop-color:#FBFBFB"
             id="stop122646" /><stop
             offset="0.7281"
             style="stop-color:#F1F1F0"
             id="stop122648" /><stop
             offset="0.8169"
             style="stop-color:#E3E3E3"
             id="stop122650" /><stop
             offset="0.8887"
             style="stop-color:#D1D2D2"
             id="stop122652" /><stop
             offset="0.9495"
             style="stop-color:#BDBEBE"
             id="stop122654" /><stop
             offset="1"
             style="stop-color:#A6A9AA"
             id="stop122656" /></linearGradient><path
           display="inline"
           d="m 465.359,193.229 c 0,6.565 -4.203,12.132 -10.119,14.126 l -0.205,0.074 c -1.445,0.463 -2.986,0.718 -4.596,0.718 v 5.463 c 1.588,0 3.121,-0.191 4.596,-0.523 9.133,-2.055 15.787,-10.102 15.787,-19.858 0,-7.479 5.453,-13.661 12.682,-14.737 v -5.522 c -10.326,1.095 -18.145,9.679 -18.145,20.259 z"
           id="path122658"
           inkscape:connector-curvature="0"
           style="display:inline;fill:url(#linearGradient139483)" /><linearGradient
           id="SVGID_2279_"
           gradientUnits="userSpaceOnUse"
           x1="426.65479"
           y1="208.08791"
           x2="450.13391"
           y2="174.5563"><stop
             offset="0.6258"
             style="stop-color:#FFFFFF"
             id="stop122661" /><stop
             offset="0.8001"
             style="stop-color:#FBFBFB"
             id="stop122663" /><stop
             offset="0.8629"
             style="stop-color:#F1F1F0"
             id="stop122665" /><stop
             offset="0.9077"
             style="stop-color:#E3E3E3"
             id="stop122667" /><stop
             offset="0.9439"
             style="stop-color:#D1D2D2"
             id="stop122669" /><stop
             offset="0.9745"
             style="stop-color:#BDBEBE"
             id="stop122671" /><stop
             offset="1"
             style="stop-color:#A6A9AA"
             id="stop122673" /></linearGradient><path
           display="inline"
           d="m 430.434,203.747 c -5.87,-5.871 -5.87,-15.409 0,-21.198 5.87,-5.87 15.328,-5.87 21.199,0 l 0.08,0.082 3.832,-3.914 c -7.746,-7.745 -20.871,-8.152 -29.024,0 -7.989,8.072 -7.989,20.79 0.081,28.943 4.801,4.801 11.243,6.694 17.377,5.778 v -5.581 c -4.761,0.946 -9.909,-0.423 -13.545,-4.11 z"
           id="path122675"
           inkscape:connector-curvature="0"
           style="display:inline;fill:url(#linearGradient139485)" /><linearGradient
           id="SVGID_2280_"
           gradientUnits="userSpaceOnUse"
           x1="383.97849"
           y1="210.2988"
           x2="407.46921"
           y2="176.7507"><stop
             offset="0.6258"
             style="stop-color:#FFFFFF"
             id="stop122678" /><stop
             offset="0.8001"
             style="stop-color:#FBFBFB"
             id="stop122680" /><stop
             offset="0.8629"
             style="stop-color:#F1F1F0"
             id="stop122682" /><stop
             offset="0.9077"
             style="stop-color:#E3E3E3"
             id="stop122684" /><stop
             offset="0.9439"
             style="stop-color:#D1D2D2"
             id="stop122686" /><stop
             offset="0.9745"
             style="stop-color:#BDBEBE"
             id="stop122688" /><stop
             offset="1"
             style="stop-color:#A6A9AA"
             id="stop122690" /></linearGradient><path
           display="inline"
           d="m 395.703,173.01 c -11.577,0 -20.383,9.05 -20.383,20.546 0,11.331 8.968,20.381 20.383,20.381 11.496,0 20.545,-9.05 20.545,-20.381 0,-11.578 -9.539,-20.546 -20.545,-20.546 z m 0.082,35.465 c -8.235,0 -15.002,-6.766 -15.002,-15 0,-8.316 6.767,-15.002 15.002,-15.002 8.315,0 15,6.686 15,15.002 0,8.234 -6.684,15 -15,15 z"
           id="path122692"
           inkscape:connector-curvature="0"
           style="display:inline;fill:url(#linearGradient139487)" /></g><rect
         style="opacity:1;fill:#ffffff;fill-opacity:0;stroke:#00ce96;stroke-width:0;stroke-miterlimit:4;stroke-dasharray:none;stroke-opacity:1"
         id="rect4692"
         width="254.81807"
         height="111.99412"
         x="374.69083"
         y="139.14835" /><rect
         style="opacity:1;fill:#ffffff;fill-opacity:0;stroke:#00ce96;stroke-width:0;stroke-miterlimit:4;stroke-dasharray:none;stroke-opacity:1"
         id="rect4694"
         width="144.08232"
         height="41.525909"
         x="391.93036"
         y="138.26749" /><rect
         style="opacity:1;fill:#ffffff;fill-opacity:0;stroke:#00ce96;stroke-width:0;stroke-miterlimit:4;stroke-dasharray:none;stroke-opacity:1"
         id="rect4696"
         width="64.553909"
         height="23.908857"
         x="478.25394"
         y="148.33438" /></g></g></svg>