<?xml version="1.0" encoding="UTF-8"?>
<svg xmlns="http://www.w3.org/2000/svg" xmlns:xlink="http://www.w3.org/1999/xlink" width="50pt" height="50pt" viewBox="0 0 50 50" version="1.1">
<g id="surface1">
<path  d="M 35.847656 31.75 L 32.027344 30.148438 C 38.21875 22.984375 37.921875 12.117188 31.121094 5.328125 C 27.671875 1.890625 23.101562 0 18.242188 0 C 13.359375 0.00390625 8.769531 1.90625 5.324219 5.363281 C 1.886719 8.808594 -0.0078125 13.394531 0 18.265625 C 0.0078125 23.136719 1.910156 27.714844 5.359375 31.15625 C 8.800781 34.589844 13.378906 36.480469 18.238281 36.480469 C 22.613281 36.480469 26.742188 34.941406 30.035156 32.132812 L 31.75 35.773438 L 45.96875 49.941406 L 50.027344 45.871094 L 35.847656 31.746094 Z M 18.238281 30.585938 C 15.082031 30.585938 11.925781 29.386719 9.519531 26.988281 C 4.691406 22.167969 4.679688 14.347656 9.5 9.519531 C 11.910156 7.101562 15.074219 5.886719 18.242188 5.886719 C 21.394531 5.886719 24.550781 7.089844 26.960938 9.496094 C 31.785156 14.308594 31.800781 22.125 26.980469 26.960938 C 24.570312 29.375 21.402344 30.585938 18.238281 30.585938 Z M 18.238281 30.585938 "/>
</g>
</svg>
