<?xml version="1.0" encoding="UTF-8" standalone="no"?>
<svg xmlns:dc="http://purl.org/dc/elements/1.1/" xmlns:cc="http://web.resource.org/cc/" xmlns:rdf="http://www.w3.org/1999/02/22-rdf-syntax-ns#" xmlns:svg="http://www.w3.org/2000/svg" xmlns="http://www.w3.org/2000/svg" xmlns:sodipodi="http://inkscape.sourceforge.net/DTD/sodipodi-0.dtd" xmlns:inkscape="http://www.inkscape.org/namespaces/inkscape" version="1.1" id="Wikimedia Logo" viewBox="-320 -540 640 860" width="1024" height="1376" sodipodi:version="0.32" inkscape:version="0.43" sodipodi:docname="Commons-logo.svg" sodipodi:docbase="/home/fizyk/anizo/wiki/SVG/legitymacja/legitymacja">
  <metadata id="metadata4466">
    <rdf:RDF>
      <cc:Work rdf:about="">
        <dc:format>image/svg+xml</dc:format>
        <dc:type rdf:resource="http://purl.org/dc/dcmitype/StillImage"/>
      </cc:Work>
    </rdf:RDF>
  </metadata>
  <sodipodi:namedview inkscape:window-height="671" inkscape:window-width="958" inkscape:pageshadow="2" inkscape:pageopacity="0.0" borderopacity="1.0" bordercolor="#666666" pagecolor="#ffffff" id="base" inkscape:zoom="0.27180233" inkscape:cx="512" inkscape:cy="835.16578" inkscape:window-x="0" inkscape:window-y="0" inkscape:current-layer="Wikimedia Logo"/>
  <defs id="defs4438">
    <clipPath id="boundary">
      <circle r="298" id="circle4441"/>
    </clipPath>
    <clipPath id="clipPath4921">
      <circle id="circle4894" r="298"/>
    </clipPath>
  </defs>
  <g id="g4939" transform="matrix(1.05219, 0, 0, 1.05219, -7.7556, -16.0933)">
    <path id="path4653" d="M -2.256609,318.96639 C -87.283034,315.98131 -165.21368,278.44058 -220.62769,213.77268 C -266.4365,160.31402 -291.91872,91.073685 -291.96362,19.938505 C -292.00935,-52.494826 -266.96163,-120.08824 -219.39275,-175.90017 C -213.26134,-183.09408 -197.34171,-199.35271 -196.42922,-199.35271 C -196.13366,-199.35271 -177.98685,-181.44838 -156.10296,-159.56532 L -116.31407,-119.77794 L -105.32786,-130.7587 C -98.399915,-137.68321 -94.135379,-141.66032 -93.783266,-141.5252 C -93.316813,-141.3462 -86.51353,-116.80972 -71.106503,-59.739974 C -70.968902,-59.230273 -71.153343,-59.038403 -71.780861,-59.038403 C -72.4106,-59.038403 -148.32498,-79.42571 -153.29493,-80.929559 C -153.6808,-81.0463 -153.9965,-81.356435 -153.9965,-81.618702 C -153.9965,-81.88101 -149.12559,-86.963996 -143.17226,-92.914284 C -137.21892,-98.864557 -132.34801,-103.916 -132.34801,-104.13971 C -132.34801,-104.69191 -151.68355,-123.98388 -152.23699,-123.98388 C -152.79118,-123.98388 -157.93962,-118.02515 -162.77896,-111.78275 C -186.91654,-80.647046 -202.17722,-42.803557 -206.27748,-3.9149283 C -207.37511,6.4955147 -207.44502,7.9841247 -206.85393,8.3587247 C -205.96331,8.9231047 -179.50339,8.8033247 -178.93236,8.2322847 C -178.57488,7.8748047 -178.45128,3.7941847 -178.45128,-7.6499343 C -178.45128,-22.733802 -178.43514,-23.046863 -177.66779,-22.846214 C -176.4234,-22.520805 -103.88425,19.179045 -103.88425,19.568995 C -103.88425,19.762065 -104.29016,20.183375 -104.78627,20.505255 C -106.99099,21.935735 -177.81305,62.433695 -178.10991,62.433695 C -178.29255,62.433695 -178.48917,55.352835 -178.54685,46.698445 L -178.65173,30.963195 L -192.88361,30.963195 L -207.11549,30.963195 L -207.00304,34.370835 C -206.7512,42.002405 -204.75376,56.114335 -202.47129,66.387505 C -195.69271,96.897405 -182.20923,125.80792 -163.27461,150.4308 C -159.82953,154.91083 -153.36438,162.61958 -152.60774,163.14945 C -152.17728,163.45092 -132.34801,143.94519 -132.34801,143.22033 C -132.34801,142.99967 -137.2589,137.90578 -143.2611,131.90061 C -150.24234,124.91588 -154.03384,120.84493 -153.78467,120.6013 C -153.13754,119.9686 -71.736041,98.029625 -71.375056,98.390595 C -71.026086,98.739575 -92.896143,180.20413 -93.522293,180.88766 C -93.742883,181.12844 -98.04775,177.1106 -104.79761,170.36409 C -110.80279,164.36188 -115.9904,159.451 -116.32564,159.451 C -117.2773,159.451 -136.42906,178.85158 -136.14536,179.52821 C -135.87133,180.1818 -127.85148,186.94643 -122.52601,191.01591 C -98.216793,209.592 -69.616148,222.83979 -39.284526,229.57331 C -29.155746,231.82187 -14.924757,233.84516 -7.468283,234.09673 L -3.860201,234.21848 L -3.860201,219.9866 L -3.860201,205.75472 L -19.595447,205.64985 C -30.211491,205.57909 -35.330694,205.40855 -35.330694,205.12567 C -35.330694,204.32712 6.905061,130.98724 7.364943,130.98724 C 7.824825,130.98724 50.060579,204.32712 50.060579,205.12567 C 50.060579,205.40855 44.941379,205.57909 34.325334,205.64985 L 18.590087,205.75472 L 18.590087,219.9866 L 18.590087,234.21848 L 22.198169,234.09673 C 29.654644,233.84516 43.885629,231.82187 54.014409,229.57331 C 84.346039,222.83979 112.94668,209.592 137.2559,191.01591 C 142.58139,186.94643 150.60123,180.1818 150.87524,179.52821 C 151.15896,178.85158 132.00718,159.451 131.05553,159.451 C 130.7203,159.451 125.53268,164.36188 119.52751,170.36409 C 112.77763,177.1106 108.47278,181.12844 108.25217,180.88766 C 107.62605,180.20413 85.755969,98.739575 86.104939,98.390595 C 86.465929,98.029625 167.86743,119.9686 168.51455,120.6013 C 168.76371,120.84493 164.97222,124.91588 157.99098,131.90061 C 151.98878,137.90578 147.0779,142.99967 147.0779,143.22033 C 147.0779,143.94519 166.90715,163.45092 167.33764,163.14945 C 168.09425,162.61958 174.55942,154.91083 178.00449,150.4308 C 196.9391,125.80792 210.42259,96.897405 217.20117,66.387505 C 219.48364,56.114335 221.48108,42.002405 221.73292,34.370835 L 221.84537,30.963195 L 207.6135,30.963195 L 193.38162,30.963195 L 193.27674,46.698445 C 193.21905,55.352835 193.02245,62.433695 192.8398,62.433695 C 192.54294,62.433695 121.72086,21.935735 119.51616,20.505255 C 119.02005,20.183375 118.61414,19.762065 118.61414,19.568995 C 118.61414,19.179045 191.1533,-22.520805 192.39769,-22.846214 C 193.16501,-23.046863 193.18117,-22.733802 193.18117,-7.6499343 C 193.18117,3.7941847 193.30476,7.8748047 193.66224,8.2322847 C 194.23328,8.8033247 220.69319,8.9231047 221.58383,8.3587247 C 222.17491,7.9841247 222.105,6.4955147 221.00738,-3.9149283 C 216.90711,-42.803557 201.64645,-80.647046 177.50886,-111.78275 C 172.64978,-118.05059 167.52037,-123.98388 166.96079,-123.98388 C 166.40752,-123.98388 147.0779,-104.68601 147.0779,-104.13364 C 147.0779,-103.91327 151.94881,-98.864557 157.90214,-92.914284 C 163.85548,-86.963996 168.72639,-81.88101 168.72639,-81.618702 C 168.72639,-81.356435 168.41068,-81.0463 168.02482,-80.929559 C 163.05489,-79.42571 87.140489,-59.038403 86.510749,-59.038403 C 85.883229,-59.038403 85.698789,-59.230273 85.836389,-59.739974 C 101.24343,-116.80972 108.04671,-141.3462 108.51315,-141.5252 C 108.86526,-141.66032 113.12937,-137.68363 120.05657,-130.75986 L 131.04166,-119.78025 L 140.86382,-129.59628 C 146.266,-134.9951 150.68598,-139.62571 150.68598,-139.88652 C 150.68598,-140.48276 143.9543,-145.45622 138.77578,-148.68592 C 127.04418,-156.00263 119.84017,-159.32365 82.499849,-174.62888 C 56.948959,-185.1018 43.361529,-191.92578 29.013435,-201.49124 C -4.615877,-223.91092 -26.751128,-253.98762 -40.666045,-296.16957 C -42.486018,-301.68667 -46.555838,-316.07588 -46.555838,-316.99344 C -46.555838,-317.60099 -49.248565,-316.68016 -67.133251,-309.9566 C -87.714352,-302.21935 -96.235852,-299.32835 -99.640454,-298.92821 C -103.4155,-298.48452 -104.3668,-299.87906 -102.62371,-303.30149 C -101.53244,-305.44414 -100.57709,-306.72634 -95.840121,-312.40594 C -86.350328,-323.78417 -79.295309,-334.67693 -70.379642,-351.71625 C -55.542608,-380.07227 -40.032871,-419.05993 -26.466109,-462.10403 C -22.608504,-474.34329 -17.633669,-490.97824 -16.473915,-495.51611 C -16.178068,-496.6737 -15.831103,-497.62082 -15.702884,-497.62082 C -15.12626,-497.62082 21.997973,-434.76118 39.226845,-404.61248 C 74.299589,-343.23891 89.953639,-311.19461 86.088579,-308.68515 C 84.877009,-307.89852 82.923849,-309.23336 77.112759,-314.81944 C 67.794719,-323.77669 63.185329,-326.82251 54.270009,-329.91365 C 50.714919,-331.14627 43.514889,-332.71338 39.737457,-333.07669 C 36.26026,-333.41113 36.296653,-333.50592 37.820844,-328.08488 C 43.471949,-307.98577 52.113079,-292.42287 63.799249,-281.29711 C 75.564839,-270.09573 89.645969,-262.54932 125.4715,-248.24545 C 153.38414,-237.10092 171.44977,-228.21325 187.1677,-217.89297 C 200.0702,-209.4213 210.40134,-200.93953 221.04538,-190.07972 C 284.87574,-124.95567 315.29672,-35.575407 304.60168,55.417975 C 295.30394,134.52344 253.78084,207.72149 190.51042,256.54124 C 154.87027,284.04136 114.30465,302.9348 70.637459,312.37206 C 47.373639,317.39976 21.022183,319.78362 -2.256609,318.96639 z " style="fill:#006398"/>
    <path id="path4697" d="M 0.95057498,119.92811 C -14.489739,118.39039 -24.939097,115.56943 -36.753753,109.74911 C -47.71471,104.34938 -55.898333,98.380215 -64.605533,89.433895 C -79.346243,74.288325 -88.492904,55.953455 -91.934509,34.651825 C -93.095489,27.466005 -93.193377,12.782315 -92.126138,5.9070747 C -90.535551,-4.3395593 -88.091681,-12.829176 -84.2843,-21.334187 C -70.288871,-52.597415 -41.467155,-74.464637 -7.267834,-79.766994 C -3.760441,-80.310772 -0.25982002,-80.481796 7.364943,-80.481796 C 14.989706,-80.481796 18.490328,-80.310772 21.99772,-79.766994 C 56.197039,-74.464637 85.018759,-52.597415 99.014199,-21.334187 C 102.82156,-12.829176 105.26544,-4.3395593 106.85604,5.9070747 C 107.92327,12.782315 107.82537,27.466005 106.66441,34.651825 C 104.99207,45.002765 102.17752,54.029825 97.814909,63.035035 C 92.727499,73.536325 87.397789,81.150095 79.335419,89.433895 C 70.609229,98.399735 62.400659,104.38233 51.483639,109.73291 C 37.778264,116.45012 24.870495,119.59092 9.569882,119.9316 C 5.711239,120.01751 1.832551,120.01595 0.95057498,119.92811 z " style="fill:#970000;fill-opacity:1"/>
  </g>
</svg>